# xmcd
#
# Track frame offsets:
#	150
#	25866
#	46394
#	60320
#	88833
#	116851
#	139377
#	160499
#	183460
#	209113
#	231482
#	263544
#	283771
#	303772
#	321209
#	342338
#
# Disc length: 4789 seconds
#
# Revision: 0
# Processed by: cddbd v1.5.2PL0 Copyright (c) Steve Scherf et al.
# Submitted via: EasyCDDAExtractor 10.2.0.1
#
DISCID=f512b310
DTITLE=Various Artist - Ben In The Mix 107
DYEAR=2009
DGENRE=House
TTITLE0=Inland Knights and Da Sunlounge - Borrowed Vol. 3 A Side
TTITLE1=Kings Of Leon - Sex On Fire ///richard sharkey and peter sar remix
TTITLE2=D-T3ch - Swinging For The Fences
TTITLE3=Moguai - Kick Out The Jams ///original mix
TTITLE4=Ethan - In My Heart ///dj dlg 2009 remix
TTITLE5=John ''Julius'' Knight and Roland Clark - This Is House ///jask's thai s
TTITLE5=oul club mix
TTITLE6=Steve Angello and Axwell and Sebastian Ingrosso and Laidback Luke ft. Debora
TTITLE6=h Cox - Leave The World Behind ///original mix
TTITLE7=Global Deejays - Everybody's Free 2009 ///klaas mix
TTITLE8=Sam Project - Why ///original club mix
TTITLE9=Eric Prydz Presents Pryda - Rakfunk
TTITLE10=Faithless ft. Cass Fox - Music Matters ///axwell remix
TTITLE11=Richard Grey Vs Erick Morillo - Life Goes On ///avicii vs philgood re
TTITLE11=mix
TTITLE12=Prophets Of Sound - High ///dillon and dickins disciple mix
TTITLE13=Dizzee Rascal and Armand Van Helden - Bonkers ///club mix
TTITLE14=Joachim Garraud Cb Lyon ft. Margeau - The Answer ///denis naidanow cl
TTITLE14=ub mix
TTITLE15=Kid Cudi Vs Crookers - Day N Nite ///agent x remix
EXTD=
EXTT0=
EXTT1=
EXTT2=
EXTT3=
EXTT4=
EXTT5=
EXTT6=
EXTT7=
EXTT8=
EXTT9=
EXTT10=
EXTT11=
EXTT12=
EXTT13=
EXTT14=
EXTT15=
PLAYORDER=
